<svg width="44" height="51" viewBox="0 0 44 51" fill="none" xmlns="http://www.w3.org/2000/svg">
<g clip-path="url(#clip0_13_551)">
<path d="M41.91 10.92C40.87 8.54001 39.41 6.55001 37.55 4.95001C35.69 3.35001 33.5 2.13001 30.99 1.28001C28.48 0.43001 25.75 0.0100098 22.81 0.0100098C19.68 0.0100098 16.8 0.45001 14.19 1.33001C11.58 2.21001 9.28 3.50001 7.29 5.20001C5.3 6.90001 3.73 9.00001 2.44 11.42C0.8 14.5 0.39 19.68 0 22.82V39.08C0 45.95 7.75 47.04 7.75 47.04C10.08 47.04 12.93 46.27 15.86 45.16C15.86 45.19 15.86 45.21 15.86 45.24V50.63H27.61V46.91C27.61 45.67 27.71 44.61 27.9 43.73C28.09 42.85 28.4 42.07 28.83 41.38C29.26 40.7 29.79 40.03 30.45 39.37C31.11 38.71 31.89 37.97 32.8 37.12C34.23 35.75 35.59 34.44 36.86 33.2C38.13 31.96 39.26 30.65 40.24 29.28C41.22 27.91 42 26.41 42.59 24.78C43.18 23.15 43.47 21.26 43.47 19.1C43.47 16.03 42.95 13.31 41.9 10.92H41.91ZM21.74 40.42C20.54 40.42 19.17 39.73 19.17 38.71H24.31C24.31 39.74 22.94 40.42 21.74 40.42ZM25.68 37.04C25.68 37.32 25.45 37.55 25.17 37.55H18.32C18.04 37.55 17.81 37.32 17.81 37.04V36.7C17.81 36.42 18.04 36.19 18.32 36.19H25.17C25.45 36.19 25.68 36.42 25.68 36.7V37.04ZM25.68 34.61C25.68 34.89 25.45 35.12 25.17 35.12H18.32C18.04 35.12 17.81 34.89 17.81 34.61V34.27C17.81 33.99 18.04 33.76 18.32 33.76H25.17C25.45 33.76 25.68 33.99 25.68 34.27V34.61ZM30.05 21.28C27.7 25.52 27.07 27.9 26.69 30.21C26.37 32.14 25.92 32.59 24.46 32.59H19.02C17.56 32.59 17.11 32.14 16.79 30.21C16.41 27.9 15.78 25.52 13.43 21.28C12.64 19.86 12.15 18.24 12.15 16.49C12.15 11.19 16.44 6.90001 21.74 6.90001C27.04 6.90001 31.33 11.19 31.33 16.49C31.33 18.23 30.84 19.85 30.05 21.28Z" fill="white"/>
</g>
<defs>
<clipPath id="clip0_13_551">
<rect width="43.47" height="50.62" fill="white"/>
</clipPath>
</defs>
</svg>
