<?xml version="1.0" encoding="UTF-8"?>
<svg id="Layer_2" data-name="Layer 2" xmlns="http://www.w3.org/2000/svg" xmlns:xlink="http://www.w3.org/1999/xlink" viewBox="0 0 43.47 71.67">
  <defs>
    <style>
      .cls-1 {
        fill: none;
      }

      .cls-2 {
        fill: #fff;
      }

      .cls-3 {
        fill: #d0343e;
      }

      .cls-4 {
        clip-path: url(#clippath);
      }
    </style>
    <clipPath id="clippath">
      <path class="cls-1" d="M41.91,10.92c-1.04-2.38-2.5-4.37-4.36-5.97-1.86-1.6-4.05-2.82-6.56-3.67-2.51-.85-5.24-1.27-8.18-1.27-3.13,0-6.01.44-8.62,1.32-2.61.88-4.91,2.17-6.9,3.87-1.99,1.7-3.56,3.8-4.85,6.22C.8,14.5.39,19.68,0,22.82v16.26c0,6.87,7.75,7.96,7.75,7.96,2.33,0,5.18-.77,8.11-1.88,0,.03,0,.05,0,.08v5.39h11.75v-3.72c0-1.24.1-2.3.29-3.18.19-.88.5-1.66.93-2.35.43-.68.96-1.35,1.62-2.01s1.44-1.4,2.35-2.25c1.43-1.37,2.79-2.68,4.06-3.92,1.27-1.24,2.4-2.55,3.38-3.92.98-1.37,1.76-2.87,2.35-4.5.59-1.63.88-3.52.88-5.68,0-3.07-.52-5.79-1.57-8.18Z"/>
    </clipPath>
  </defs>
  <g id="Layer_1-2" data-name="Layer 1">
    <g>
      <path class="cls-3" d="M21.74,56.59c-2.15,0-4,.75-5.53,2.25-1.54,1.5-2.3,3.3-2.3,5.39,0,1.04.21,2.02.64,2.94.42.92.99,1.7,1.71,2.35.72.65,1.55,1.18,2.5,1.57.95.39,1.94.59,2.99.59,2.15,0,4-.75,5.53-2.25,1.53-1.5,2.3-3.3,2.3-5.39s-.78-3.85-2.35-5.29c-1.57-1.44-3.39-2.15-5.48-2.15Z"/>
      <path class="cls-3" d="M41.91,10.92c-1.04-2.38-2.5-4.37-4.36-5.97-1.86-1.6-4.05-2.82-6.56-3.67-2.51-.85-5.24-1.27-8.18-1.27-3.13,0-6.01.44-8.62,1.32-2.61.88-4.91,2.17-6.9,3.87-1.99,1.7-3.56,3.8-4.85,6.22C.8,14.5.39,19.68,0,22.82v16.26c0,6.87,7.75,7.96,7.75,7.96,2.33,0,5.18-.77,8.11-1.88,0,.03,0,.05,0,.08v5.39h11.75v-3.72c0-1.24.1-2.3.29-3.18.19-.88.5-1.66.93-2.35.43-.68.96-1.35,1.62-2.01s1.44-1.4,2.35-2.25c1.43-1.37,2.79-2.68,4.06-3.92,1.27-1.24,2.4-2.55,3.38-3.92.98-1.37,1.76-2.87,2.35-4.5.59-1.63.88-3.52.88-5.68,0-3.07-.52-5.79-1.57-8.18Z"/>
    </g>
    <g class="cls-4">
      <path class="cls-2" d="M36.33,12.38v11.88c0,.72-.09,1.42-.27,2.09-.18.67-.48,1.26-.88,1.77-.41.51-.92.92-1.54,1.22-.62.3-2.64.45-3.55.45-.97,0-1.72-.22-2.24-.66-.53-.44-.92-.98-1.18-1.63-.26-.65-.42-1.34-.48-2.09-.06-.74-.09-1.41-.09-2.02v-11.02h-8.64l-5.44,15.1h-.09l-6.07-15.1H-.13l9.29,21.94-1.04,2.58c-.24.57-.47,1.06-.68,1.47-.21.41-.48.74-.79,1-.32.26-.7.44-1.16.57-.45.12-1.01.18-1.68.18-.48,0-.96-.05-1.43-.16-.47-.11-3.15-1.45-3.57-1.6l1.01,5.4c1.36.36,3.29,1.25,4.71,1.25,1.21,0,2.24-.13,3.11-.39.86-.26,1.61-.65,2.24-1.18.63-.53,1.19-1.18,1.65-1.95.47-.77.9-1.67,1.29-2.7l9.08-23.33v10.64c0,1.12.14,2.19.41,3.22.27,1.03.72,1.94,1.36,2.74.63.8,1.46,1.44,2.47,1.9,1.01.47,2.24.7,3.69.7,1.81,0,4-.4,5.06-1.2,1.06-.8,1.84-1.75,2.36-2.83h.09l-.04,3.49h3.6V12.38h-4.58Z"/>
    </g>
  </g>
</svg>