<?xml version="1.0" encoding="UTF-8"?>
<svg id="Layer_2" data-name="Layer 2" xmlns="http://www.w3.org/2000/svg" xmlns:xlink="http://www.w3.org/1999/xlink" viewBox="0 0 178.62 71.67">
  <defs>
    <style>
      .cls-1 {
        fill: none;
      }

      .cls-2 {
        fill: #c43140;
      }

      .cls-3 {
        fill: #fff;
      }

      .cls-4 {
        fill: #d0343e;
      }

      .cls-5 {
        clip-path: url(#clippath);
      }
    </style>
    <clipPath id="clippath">
      <path class="cls-1" d="M41.91,10.92c-1.04-2.38-2.5-4.37-4.36-5.97-1.86-1.6-4.05-2.82-6.56-3.67-2.51-.85-5.24-1.27-8.18-1.27-3.13,0-6.01.44-8.62,1.32-2.61.88-4.91,2.17-6.9,3.87-1.99,1.7-3.56,3.8-4.85,6.22C.8,14.5.39,19.68,0,22.82v16.26c0,6.87,7.75,7.96,7.75,7.96,2.33,0,5.18-.77,8.11-1.88,0,.03,0,.05,0,.08v5.39h11.75v-3.72c0-1.24.1-2.3.29-3.18.19-.88.5-1.66.93-2.35.43-.68.96-1.35,1.62-2.01s1.44-1.4,2.35-2.25c1.43-1.37,2.79-2.68,4.06-3.92,1.27-1.24,2.4-2.55,3.38-3.92.98-1.37,1.76-2.87,2.35-4.5.59-1.63.88-3.52.88-5.68,0-3.07-.52-5.79-1.57-8.18Z"/>
    </clipPath>
  </defs>
  <g id="Layer_1-2" data-name="Layer 1">
    <g>
      <path class="cls-2" d="M54.64,7.6h6.72v42.34h-6.72V7.6Z"/>
      <path class="cls-2" d="M74.46,38.85c.22,2.02,1.01,3.58,2.35,4.7s2.97,1.68,4.87,1.68c1.68,0,3.09-.34,4.23-1.04,1.14-.69,2.14-1.56,3-2.6l4.82,3.64c-1.57,1.94-3.32,3.32-5.26,4.14-1.94.82-3.98,1.23-6.1,1.23-2.02,0-3.92-.34-5.71-1.01s-3.34-1.62-4.65-2.86c-1.31-1.23-2.34-2.72-3.11-4.45-.77-1.74-1.15-3.67-1.15-5.8s.38-4.06,1.15-5.8c.76-1.74,1.8-3.22,3.11-4.45,1.31-1.23,2.86-2.18,4.65-2.86s3.7-1.01,5.71-1.01c1.87,0,3.57.33,5.12.98,1.55.65,2.87,1.6,3.98,2.83,1.1,1.23,1.96,2.75,2.58,4.56.62,1.81.92,3.89.92,6.24v1.85h-20.5ZM88.24,33.81c-.04-1.98-.65-3.54-1.85-4.68-1.2-1.14-2.86-1.71-4.98-1.71-2.02,0-3.61.58-4.79,1.74-1.18,1.16-1.9,2.71-2.16,4.65h13.78Z"/>
      <path class="cls-2" d="M118.03,46.24h-.17c-.97,1.53-2.2,2.64-3.7,3.33-1.49.69-3.14,1.04-4.93,1.04-1.23,0-2.44-.17-3.61-.5s-2.22-.84-3.14-1.51c-.92-.67-1.65-1.51-2.21-2.52-.56-1.01-.84-2.18-.84-3.53,0-1.46.26-2.7.78-3.72.52-1.03,1.22-1.88,2.1-2.58.88-.69,1.89-1.24,3.05-1.65,1.16-.41,2.36-.72,3.61-.92,1.25-.2,2.51-.34,3.78-.39,1.27-.06,2.46-.08,3.58-.08h1.68v-.73c0-1.68-.58-2.94-1.74-3.78-1.16-.84-2.63-1.26-4.42-1.26-1.42,0-2.74.25-3.98.76-1.23.5-2.3,1.19-3.19,2.04l-3.53-3.53c1.49-1.53,3.24-2.63,5.24-3.3,2-.67,4.06-1.01,6.19-1.01,1.9,0,3.51.21,4.82.64,1.31.43,2.39.98,3.25,1.65.86.67,1.52,1.45,1.99,2.32.47.88.8,1.76,1.01,2.66.2.9.33,1.76.36,2.6s.06,1.58.06,2.21v15.46h-6.05v-3.7ZM117.64,37.9h-1.4c-.93,0-1.98.04-3.14.11-1.16.08-2.25.25-3.28.53-1.03.28-1.9.69-2.6,1.23s-1.06,1.3-1.06,2.27c0,.64.14,1.17.42,1.6.28.43.64.79,1.09,1.09s.95.51,1.51.64c.56.13,1.12.2,1.68.2,2.31,0,4.02-.55,5.12-1.65,1.1-1.1,1.65-2.6,1.65-4.51v-1.51Z"/>
      <path class="cls-2" d="M131.3,23.06h6.72v4.26h.11c.75-1.57,1.81-2.78,3.19-3.64,1.38-.86,2.97-1.29,4.76-1.29.41,0,.81.04,1.2.11.39.08.79.17,1.2.28v6.5c-.56-.15-1.11-.27-1.65-.36-.54-.09-1.07-.14-1.6-.14-1.57,0-2.83.29-3.78.87s-1.68,1.24-2.18,1.99c-.5.75-.84,1.49-1.01,2.24-.17.75-.25,1.31-.25,1.68v14.39h-6.72v-26.88Z"/>
      <path class="cls-2" d="M154.09,23.06h6.38v4.31h.11c.63-1.34,1.61-2.51,2.91-3.5,1.31-.99,3.08-1.48,5.32-1.48,1.79,0,3.31.3,4.56.9,1.25.6,2.27,1.38,3.05,2.35.78.97,1.34,2.09,1.68,3.36.34,1.27.5,2.6.5,3.98v16.97h-6.72v-13.61c0-.75-.04-1.58-.11-2.49-.08-.91-.27-1.77-.59-2.58-.32-.8-.81-1.47-1.48-2.02-.67-.54-1.59-.81-2.74-.81s-2.06.19-2.83.56c-.77.37-1.4.88-1.9,1.51-.5.64-.87,1.36-1.09,2.18-.22.82-.34,1.68-.34,2.58v14.67h-6.72v-26.88Z"/>
    </g>
    <g>
      <path class="cls-4" d="M21.74,56.59c-2.15,0-4,.75-5.53,2.25-1.54,1.5-2.3,3.3-2.3,5.39,0,1.04.21,2.02.64,2.94.42.92.99,1.7,1.71,2.35.72.65,1.55,1.18,2.5,1.57.95.39,1.94.59,2.99.59,2.15,0,4-.75,5.53-2.25,1.53-1.5,2.3-3.3,2.3-5.39s-.78-3.85-2.35-5.29c-1.57-1.44-3.39-2.15-5.48-2.15Z"/>
      <path class="cls-4" d="M41.91,10.92c-1.04-2.38-2.5-4.37-4.36-5.97-1.86-1.6-4.05-2.82-6.56-3.67-2.51-.85-5.24-1.27-8.18-1.27-3.13,0-6.01.44-8.62,1.32-2.61.88-4.91,2.17-6.9,3.87-1.99,1.7-3.56,3.8-4.85,6.22C.8,14.5.39,19.68,0,22.82v16.26c0,6.87,7.75,7.96,7.75,7.96,2.33,0,5.18-.77,8.11-1.88,0,.03,0,.05,0,.08v5.39h11.75v-3.72c0-1.24.1-2.3.29-3.18.19-.88.5-1.66.93-2.35.43-.68.96-1.35,1.62-2.01s1.44-1.4,2.35-2.25c1.43-1.37,2.79-2.68,4.06-3.92,1.27-1.24,2.4-2.55,3.38-3.92.98-1.37,1.76-2.87,2.35-4.5.59-1.63.88-3.52.88-5.68,0-3.07-.52-5.79-1.57-8.18Z"/>
    </g>
    <g class="cls-5">
      <path class="cls-3" d="M36.33,12.38v11.88c0,.72-.09,1.42-.27,2.09-.18.67-.48,1.26-.88,1.77-.41.51-.92.92-1.54,1.22-.62.3-2.64.45-3.55.45-.97,0-1.72-.22-2.24-.66-.53-.44-.92-.98-1.18-1.63-.26-.65-.42-1.34-.48-2.09-.06-.74-.09-1.41-.09-2.02v-11.02h-8.64l-5.44,15.1h-.09l-6.07-15.1H-.13l9.29,21.94-1.04,2.58c-.24.57-.47,1.06-.68,1.47-.21.41-.48.74-.79,1-.32.26-.7.44-1.16.57-.45.12-1.01.18-1.68.18-.48,0-.96-.05-1.43-.16-.47-.11-3.15-1.45-3.57-1.6l1.01,5.4c1.36.36,3.29,1.25,4.71,1.25,1.21,0,2.24-.13,3.11-.39.86-.26,1.61-.65,2.24-1.18.63-.53,1.19-1.18,1.65-1.95.47-.77.9-1.67,1.29-2.7l9.08-23.33v10.64c0,1.12.14,2.19.41,3.22.27,1.03.72,1.94,1.36,2.74.63.8,1.46,1.44,2.47,1.9,1.01.47,2.24.7,3.69.7,1.81,0,4-.4,5.06-1.2,1.06-.8,1.84-1.75,2.36-2.83h.09l-.04,3.49h3.6V12.38h-4.58Z"/>
    </g>
  </g>
</svg>